<svg width="72" height="72" viewBox="0 0 72 72" fill="none" xmlns="http://www.w3.org/2000/svg">
<path d="M10.8003 15.6008C10.8003 12.9499 12.9493 10.8008 15.6002 10.8008H40.8003C43.4512 10.8008 45.6003 12.9498 45.6003 15.6008V40.8007C45.6003 43.4516 43.4512 45.6007 40.8003 45.6007H15.6003C12.9493 45.6007 10.8003 43.4517 10.8003 40.8007V15.6008Z" fill="url(#paint0_radial_13_426)"/>
<path d="M9.6001 14.4016C9.6001 11.7506 11.7491 9.60162 14.4001 9.60156H39.6001C42.2511 9.60156 44.4001 11.7506 44.4001 14.4016V39.6015C44.4001 42.2525 42.2511 44.4015 39.6001 44.4015H14.4001C11.7491 44.4016 9.6001 42.2525 9.6001 39.6015V14.4016Z" fill="url(#paint1_radial_13_426)"/>
<path d="M18.5999 21.9008C18.5999 23.0606 17.6597 24.0008 16.4999 24.0008C15.3401 24.0008 14.3999 23.0606 14.3999 21.9008C14.3999 20.741 15.3401 19.8008 16.4999 19.8008C17.6597 19.8008 18.5999 20.741 18.5999 21.9008Z" fill="url(#paint2_radial_13_426)"/>
<path d="M39.5999 21.9008C39.5999 23.0606 38.6597 24.0008 37.4999 24.0008C36.3401 24.0008 35.3999 23.0606 35.3999 21.9008C35.3999 20.741 36.3401 19.8008 37.4999 19.8008C38.6597 19.8008 39.5999 20.741 39.5999 21.9008Z" fill="url(#paint3_radial_13_426)"/>
<path d="M23.6714 29.4501C23.2438 29.1967 22.6918 29.3379 22.4384 29.7655C22.1849 30.1932 22.3262 30.7452 22.7538 30.9986C23.8255 31.6337 26.7691 32.7744 30.6376 32.7744C34.5061 32.7744 37.4498 31.6337 38.5214 30.9986C38.9491 30.7452 39.0903 30.1932 38.8369 29.7655C38.5835 29.3379 38.0314 29.1967 37.6038 29.4501C36.8192 29.9151 34.1941 30.9744 30.6376 30.9744C27.0811 30.9744 24.4561 29.9151 23.6714 29.4501Z" fill="url(#paint4_radial_13_426)"/>
<path opacity="0.35" d="M19.2002 44.4016H28.2002L32.4002 27.6016C30.2789 28.1801 28.4544 29.5387 27.2923 31.4053L19.2002 44.4016Z" fill="url(#paint5_radial_13_426)"/>
<path d="M27.6001 32.4016C27.6001 29.7506 29.7491 27.6016 32.4001 27.6016H57.6001C60.2509 27.6016 62.4001 29.7506 62.4001 32.4016V57.6015C62.4001 60.2524 60.2509 62.4016 57.6001 62.4016H32.4001C29.7491 62.4016 27.6001 60.2524 27.6001 57.6016V32.4016Z" fill="url(#paint6_radial_13_426)"/>
<path d="M36.5999 39.9008C36.5999 41.0606 35.6597 42.0008 34.4999 42.0008C33.3401 42.0008 32.3999 41.0606 32.3999 39.9008C32.3999 38.741 33.3401 37.8008 34.4999 37.8008C35.6597 37.8008 36.5999 38.741 36.5999 39.9008Z" fill="url(#paint7_radial_13_426)"/>
<path d="M57.5999 39.9008C57.5999 41.0606 56.6597 42.0008 55.4999 42.0008C54.3401 42.0008 53.3999 41.0606 53.3999 39.9008C53.3999 38.741 54.3401 37.8008 55.4999 37.8008C56.6597 37.8008 57.5999 38.741 57.5999 39.9008Z" fill="url(#paint8_radial_13_426)"/>
<path d="M41.8214 47.6025C41.3938 47.349 40.8417 47.4903 40.5883 47.9179C40.3349 48.3455 40.4761 48.8976 40.9038 49.1509C41.9754 49.786 44.9191 50.9267 48.7876 50.9267C52.6561 50.9267 55.5997 49.786 56.6714 49.1509C57.099 48.8976 57.2403 48.3455 56.9868 47.9179C56.7334 47.4903 56.1814 47.349 55.7538 47.6025C54.9691 48.0674 52.3441 49.1267 48.7876 49.1267C45.2311 49.1267 42.606 48.0674 41.8214 47.6025Z" fill="url(#paint9_radial_13_426)"/>
<defs>
<radialGradient id="paint0_radial_13_426" cx="0" cy="0" r="1" gradientUnits="userSpaceOnUse" gradientTransform="translate(39.0753 17.6882) rotate(135) scale(32.8097)">
<stop stop-color="#99421D"/>
<stop offset="0.333333" stop-color="#99161D"/>
<stop offset="0.666667" stop-color="#7D1845"/>
<stop offset="1" stop-color="#59216E"/>
</radialGradient>
<radialGradient id="paint1_radial_13_426" cx="0" cy="0" r="1" gradientUnits="userSpaceOnUse" gradientTransform="translate(62.4001 8.70157) rotate(133.87) scale(75.3216)">
<stop stop-color="#FFDCCC"/>
<stop offset="0.333333" stop-color="#FFBDC0"/>
<stop offset="0.666667" stop-color="#F89DC6"/>
<stop offset="1" stop-color="#E4A1FA"/>
</radialGradient>
<radialGradient id="paint2_radial_13_426" cx="0" cy="0" r="1" gradientUnits="userSpaceOnUse" gradientTransform="translate(60.2999 11.1008) rotate(133.939) scale(68.7426 55.9547)">
<stop stop-color="#99421D"/>
<stop offset="0.333333" stop-color="#99161D"/>
<stop offset="0.666667" stop-color="#7D1845"/>
<stop offset="1" stop-color="#59216E"/>
</radialGradient>
<radialGradient id="paint3_radial_13_426" cx="0" cy="0" r="1" gradientUnits="userSpaceOnUse" gradientTransform="translate(60.2999 11.1008) rotate(133.939) scale(68.7426 55.9547)">
<stop stop-color="#99421D"/>
<stop offset="0.333333" stop-color="#99161D"/>
<stop offset="0.666667" stop-color="#7D1845"/>
<stop offset="1" stop-color="#59216E"/>
</radialGradient>
<radialGradient id="paint4_radial_13_426" cx="0" cy="0" r="1" gradientUnits="userSpaceOnUse" gradientTransform="translate(60.3001 11.0994) rotate(133.939) scale(68.7426 55.9548)">
<stop stop-color="#99421D"/>
<stop offset="0.333333" stop-color="#99161D"/>
<stop offset="0.666667" stop-color="#7D1845"/>
<stop offset="1" stop-color="#59216E"/>
</radialGradient>
<radialGradient id="paint5_radial_13_426" cx="0" cy="0" r="1" gradientUnits="userSpaceOnUse" gradientTransform="translate(39.6002 27.9016) rotate(135) scale(23.3345)">
<stop stop-color="#FFA984"/>
<stop offset="0.333333" stop-color="#FF787F"/>
<stop offset="0.666667" stop-color="#F45FA2"/>
<stop offset="1" stop-color="#C44AF1"/>
</radialGradient>
<radialGradient id="paint6_radial_13_426" cx="0" cy="0" r="1" gradientUnits="userSpaceOnUse" gradientTransform="translate(61.8001 29.7016) rotate(135) scale(43.2749)">
<stop stop-color="#EF7744"/>
<stop offset="0.333333" stop-color="#E50914"/>
<stop offset="0.666667" stop-color="#A70D53"/>
<stop offset="1" stop-color="#792A95"/>
</radialGradient>
<radialGradient id="paint7_radial_13_426" cx="0" cy="0" r="1" gradientUnits="userSpaceOnUse" gradientTransform="translate(62.0999 11.1008) rotate(137.146) scale(73.6614 60.3576)">
<stop stop-color="#FFDCCC"/>
<stop offset="0.333333" stop-color="#FDF6F6"/>
<stop offset="0.666667" stop-color="#FADCE9"/>
<stop offset="1" stop-color="#E4A1FA"/>
</radialGradient>
<radialGradient id="paint8_radial_13_426" cx="0" cy="0" r="1" gradientUnits="userSpaceOnUse" gradientTransform="translate(62.0999 11.1008) rotate(137.146) scale(73.6614 60.3576)">
<stop stop-color="#FFDCCC"/>
<stop offset="0.333333" stop-color="#FDF6F6"/>
<stop offset="0.666667" stop-color="#FADCE9"/>
<stop offset="1" stop-color="#E4A1FA"/>
</radialGradient>
<radialGradient id="paint9_radial_13_426" cx="0" cy="0" r="1" gradientUnits="userSpaceOnUse" gradientTransform="translate(62.1001 11.1017) rotate(137.146) scale(73.6614 60.3576)">
<stop stop-color="#FFDCCC"/>
<stop offset="0.333333" stop-color="#FDF6F6"/>
<stop offset="0.666667" stop-color="#FADCE9"/>
<stop offset="1" stop-color="#E4A1FA"/>
</radialGradient>
</defs>
</svg>
